<svg xmlns="http://www.w3.org/2000/svg" viewBox="0 0 99.99994 99.99999"><title>Profile 6</title><path d="M99.99851,49.99855a49.86656,49.86656,0,0,1-16.6344,37.23981c-.07307.06567-.14613.13138-.219.18978-.64241.5693-1.29925,1.124-1.9782,1.65686v.0073a50.00555,50.00555,0,0,1-62.08564.2044v-.00731c-.562-.44523-1.11678-.89781-1.6569-1.36492-.08037-.06571-.15325-.13138-.23362-.19709A49.99877,49.99877,0,1,1,99.99851,49.99855Z" fill="#e3feee"/><path d="M81.15875,89.08789v.00731a50.00575,50.00575,0,0,1-62.08582.20435v-.00731l2.48178-1.27733c.05115-.02918.10942-.05836.16056-.08759.5109-.26275,1.00718-.54012,1.50365-.83936.17517-.09489.35034-.2044.52551-.3139.24075-.13864.47437-.29194.708-.44523.23362-.146.45975-.29194.68606-.45985.23362-.14594.45994-.30655.68607-.47441A34.70214,34.70214,0,0,0,31.912,79.84c.66415-.77369,1.29926-1.56927,1.89052-2.40137a35.12412,35.12412,0,0,0,1.93418-3.00721,33.68675,33.68675,0,0,0,2.21894-4.62762c.39418-1.00723.73721-2.04373,1.03641-3.08749a1.03836,1.03836,0,0,0,.03653-.11676c.095-.31386.17517-.62776.25554-.94161.05827-.197.10942-.40874.15325-.6131.05115-.2117.0948-.42335.13864-.635.07306-.29929.13134-.59853.18248-.90508.0073-.0073.0073-.0073,0-.01461.05114-.23357.095-.47445.13133-.71529l1.16062-7.05092.2117-1.29194.219-1.37949H59.13755l.438,2.67143,1.16774,7.05092c.03653.24084.08037.47441.13133.71529v.00731c.18978,1.05837.438,2.09482.7226,3.11667a34.60329,34.60329,0,0,0,5.23355,10.82451c.59126.8248,1.21888,1.62768,1.89034,2.40137a33.864,33.864,0,0,0,4.759,4.55465c.43071.35034.86854.67881,1.32117,1,.45263.32847.91238.635,1.37962.93426.27.17517.54.35038.8101.51094.20439.12407.40879.24819.61318.36495.30651.18248.62762.35765.94143.52556.17535.10215.35783.18974.53282.28463Z" fill="#ffd675"/><path d="M58.40765,66.17614c-.32843.71529-4.10947,8.518-12.6201,9.89752a16.54546,16.54546,0,0,1-10.05082-1.64229,33.68675,33.68675,0,0,0,2.21894-4.62762c.39418-1.00723.73721-2.04373,1.03641-3.08749a1.03836,1.03836,0,0,0,.03653-.11676c.0875-.31386.17517-.62045.25554-.94161.05827-.197.10942-.40874.15325-.6131.05115-.2117.10211-.42335.13864-.635.07306-.29929.13134-.59853.18248-.90508.0073-.0073.0073-.0073,0-.01461.05114-.23357.095-.47445.13133-.71529l1.16062-7.05092.2117-1.29194H56.22523l1.27,7.60565A36.04719,36.04719,0,0,0,58.40765,66.17614Z" fill="#ffa040"/><path d="M78.548,87.73091a50.00935,50.00935,0,0,1-56.83036.19709c.51089-.2628,1.00718-.54017,1.50364-.83941.175-.0949.35034-.20435.52552-.31386.24074-.13868.47436-.292.708-.44523.23344-.146.45976-.292.68607-.45984.23362-.146.45976-.3066.68607-.47446a34.703,34.703,0,0,0,6.08748-5.55457c.66415-.7737,1.29925-1.56932,1.89052-2.40138a39.082,39.082,0,0,0,6.89027,2.40868,39.8959,39.8959,0,0,0,26.138-2.40868c.59109.82476,1.21889,1.62768,1.89034,2.40138a33.86648,33.86648,0,0,0,4.759,4.5546c.43071.35034.86855.67881,1.32118,1,.45245.32847.91238.635,1.37944.9343.27015.17517.54012.35034.81027.5109.2044.12411.40879.24819.613.36495C77.91308,87.38783,78.2342,87.563,78.548,87.73091Z" fill="#fff"/><path d="M79.08289,88.012,81.163,89.085v.00731a50.00558,50.00558,0,0,1-62.08565.20439v-.00731L21.559,88.012c.562-.292,1.11678-.59853,1.6642-.927.17517-.10219.35034-.20435.52552-.31385.23361-.146.47454-.292.708-.44523.22632-.146.45994-.29929.68607-.45985.23362-.15329.45993-.31385.68625-.47445a34.828,34.828,0,0,0,6.06538-5.55457h.02922a39.87181,39.87181,0,0,0,36.78736,0h.029a35.03476,35.03476,0,0,0,4.74438,4.5546c.43071.34308.876.67881,1.32118,1,.45262.32116.91238.635,1.37962.9343.27.17517.54012.35034.81009.51094.2044.12407.40879.24814.61319.36495C78.09014,87.48648,78.58661,87.75655,79.08289,88.012Z" fill="#4e0dd1"/><path d="M50.31957,69.08131h0A12.76262,12.76262,0,0,1,37.55693,56.31869V28.6663c0-7.0486,6.24017-4.56783,13.28877-4.56783h0c7.0486,0,12.23649-2.48077,12.23649,4.56783V56.31869A12.76262,12.76262,0,0,1,50.31957,69.08131Z" fill="#ffd675"/><circle cx="56.10263" cy="44.98229" r="1.39591" fill="#692b1e"/><circle cx="44.53649" cy="44.98229" r="1.39591" fill="#692b1e"/><path d="M46.98468,55.71912h7.722a0,0,0,0,1,0,0v.45967a3.861,3.861,0,0,1-3.861,3.861h0a3.861,3.861,0,0,1-3.861-3.861v-.45967a0,0,0,0,1,0,0Z" fill="#fff"/><path d="M50,3.64651A46.353,46.353,0,0,1,80.92531,84.52737l-.06006.05481-.071.05677-.06787.0603c-.6377.56518-1.23,1.0614-1.81055,1.51721l-.85767.67761a46.3645,46.3645,0,0,1-56.23486-.08471l-.47778-.37842c-.58887-.46656-1.09131-.88025-1.53589-1.26465l-.04126-.0354-.03565-.0293-.05322-.04541c-.04224-.03613-.08447-.07214-.12793-.10827A46.35259,46.35259,0,0,1,50,3.64651M50,0A49.99906,49.99906,0,0,0,17.19069,87.72732c.08032.0658.15332.13147.23364.19715.54.467,1.095.91968,1.657,1.36487v.00732A50.00557,50.00557,0,0,0,81.167,89.09231V89.085c.679-.53284,1.33569-1.08752,1.978-1.65686.073-.05847.146-.12415.219-.18982A49.99949,49.99949,0,0,0,50,0Z" fill="#38c368"/><ellipse cx="63.14469" cy="26.74089" rx="3.52393" ry="3.48395" transform="translate(29.10267 86.26793) rotate(-83.18782)" fill="#006c76"/><path d="M58.57444,27.62147s3.2957,2.93292,3.911,5.78747a26.8834,26.8834,0,0,1,.54235,5.62688s2.25464-4.02315,2.28754-6.80026-3.02587-7.19317-3.02587-7.19317Z" fill="#006c76"/><path d="M49.2112,18.19005a8.53989,8.53989,0,0,1,8.22926-5.09293c4.20873.29757,7.076,4.01749,7.56155,7.25133.74709,4.97543-3.96173,10.00025-8.55985,11.61307-6.75609,2.36969-12.46614-2.9097-15.89964.47207a10.81555,10.81555,0,0,0-2.663,5.41192c-.35067,2.004.03748,3.43962-.314,3.52935-.47765.12194-1.77278-2.38326-2.17419-5.0661a13.30755,13.30755,0,0,1,.06-4.25509,5.35274,5.35274,0,0,1-.56868-1.77811c-.36967-2.80559,1.7078-4.98709,2.07021-5.36767,3.01735-3.16846,7.88089-2.10849,8.20208-2.03328Z" fill="#006c76"/><ellipse cx="47.7693" cy="21.35518" rx="3.52393" ry="3.48395" transform="translate(20.89871 66.2542) rotate(-83.18782)" fill="#006c76"/><path d="M0,0V100H99.99994V0ZM80.89622,84.48846c-.06736.06081-.13507.12167-.20279.17575-.59483.52725-1.2032,1.041-1.83189,1.53439v.00677a46.309,46.309,0,0,1-57.49612.18929v-.00677c-.52069-.41231-1.03427-.83143-1.53465-1.264-.07449-.06086-.14185-.12167-.21634-.18252a46.30244,46.30244,0,1,1,61.28179-.4529Z" fill="#38c368"/></svg>